<?xml version="1.0" encoding="UTF-8" standalone="no"?>
<!-- Created with Inkscape (http://www.inkscape.org/) -->

<svg
   xmlns:dc="http://purl.org/dc/elements/1.1/"
   xmlns:cc="http://creativecommons.org/ns#"
   xmlns:rdf="http://www.w3.org/1999/02/22-rdf-syntax-ns#"
   xmlns:svg="http://www.w3.org/2000/svg"
   xmlns="http://www.w3.org/2000/svg"
   xmlns:sodipodi="http://sodipodi.sourceforge.net/DTD/sodipodi-0.dtd"
   xmlns:inkscape="http://www.inkscape.org/namespaces/inkscape"
   width="200"
   height="200"
   id="svg2"
   version="1.1"
   inkscape:version="0.48.2 r9819"
   sodipodi:docname="rendeer-icon.svg"
   inkscape:export-filename="/home/johannes/Data/DEV/projects/rendeer/images/rendeer-icon.png"
   inkscape:export-xdpi="90"
   inkscape:export-ydpi="90">
  <defs
     id="defs4" />
  <sodipodi:namedview
     id="base"
     pagecolor="#ffffff"
     bordercolor="#666666"
     borderopacity="1.0"
     inkscape:pageopacity="0.0"
     inkscape:pageshadow="2"
     inkscape:zoom="0.98994949"
     inkscape:cx="250.96611"
     inkscape:cy="-7.7555578"
     inkscape:document-units="px"
     inkscape:current-layer="layer1"
     showgrid="false"
     inkscape:window-width="875"
     inkscape:window-height="552"
     inkscape:window-x="340"
     inkscape:window-y="169"
     inkscape:window-maximized="0"
     fit-margin-top="10"
     fit-margin-bottom="10"
     fit-margin-left="10"
     fit-margin-right="10" />
  <metadata
     id="metadata7">
    <rdf:RDF>
      <cc:Work
         rdf:about="">
        <dc:format>image/svg+xml</dc:format>
        <dc:type
           rdf:resource="http://purl.org/dc/dcmitype/StillImage" />
        <dc:title></dc:title>
      </cc:Work>
    </rdf:RDF>
  </metadata>
  <g
     inkscape:label="Ebene 1"
     inkscape:groupmode="layer"
     id="layer1"
     transform="translate(-55.208207,40.207501)">
    <path
       sodipodi:type="arc"
       style="fill:#333333;fill-rule:evenodd;stroke:#000000;stroke-width:1px;stroke-linecap:butt;stroke-linejoin:miter;stroke-opacity:0"
       id="path2985"
       sodipodi:cx="167.18025"
       sodipodi:cy="134.13351"
       sodipodi:rx="27.779196"
       sodipodi:ry="26.263966"
       d="m 194.95945,134.13351 a 27.779196,26.263966 0 1 1 -55.55839,0 27.779196,26.263966 0 1 1 55.55839,0 z"
       transform="matrix(0.85735839,0,0,0.85688789,10.714877,-15.352836)" />
    <path
       sodipodi:type="arc"
       style="fill:#f2f2f2;stroke:#000000;stroke-opacity:0"
       id="path3755"
       sodipodi:cx="195.96959"
       sodipodi:cy="209.89496"
       sodipodi:rx="13.131983"
       sodipodi:ry="13.131983"
       d="m 209.10157,209.89496 a 13.131983,13.131983 0 1 1 -26.26396,0 13.131983,13.131983 0 1 1 26.26396,0 z"
       transform="matrix(0.59547273,0,0,0.44162657,37.353723,-1.4931577)" />
    <g
       id="g3783"
       transform="matrix(0.84946056,0,0,0.83788881,22.759601,-47.71754)">
      <path
         inkscape:connector-curvature="0"
         d="m 125.15156,116.91067 c -1.80781,-1.25121 -3.55837,-2.79963 -5.37449,-4.01604 -2.11501,-1.54045 -4.28903,-2.8767 -6.49945,-3.87602 -1.84815,-0.76329 -3.65338,-1.72251 -5.53882,-2.15728 -1.97996,-0.33504 -3.97111,-0.34588 -5.95782,-0.35144 -2.482266,-0.0294 -4.964566,-0.0322 -7.446886,-0.0512 -3.13758,-0.28732 -6.24738,0.24239 -9.36848,0.72815 -2.71453,0.38081 -5.38157,1.43484 -8.084929,2.01367 -1.877588,0.38982 -3.767006,0.39222 -5.65337,0.40073 -2.116191,0.12016 -4.19064,0.0135 -6.228845,-1.10453 -2.086837,-1.63992 -3.865132,-4.36624 -5.627747,-6.95246 -1.751676,-2.412526 -3.374984,-4.949586 -4.747448,-8.096276 -1.18199,-2.99266 -1.802365,-6.54708 -2.275533,-10.10397 -0.209912,-3.299123 -0.670453,-6.488168 -1.074797,-9.71246 -0.470658,-3.110753 -0.820781,-6.195528 -0.739264,-9.431377 0.151735,-2.119701 0.509425,-4.161016 0.784988,-6.232276 0,0 10.897113,-9.67305 10.897113,-9.67305 l 0,0 c -0.233968,2.001612 -0.516289,3.976372 -0.859747,5.924728 -0.178526,3.064667 0.07076,5.939327 0.574546,8.888605 0.313427,3.237201 0.954247,6.369294 1.031502,9.698032 0.378787,3.264729 0.950942,6.472535 2.012715,9.217688 1.315496,2.97734 2.861907,5.4477 4.523464,7.76221 1.673053,2.37669 3.386029,4.91056 5.425256,6.09733 1.997222,0.76512 4.015206,0.77158 6.049006,0.6356 1.85106,-0.0548 3.70427,-0.16371 5.54506,-0.55132 2.65396,-0.58501 5.28984,-1.47046 7.96134,-1.75547 3.15955,-0.49784 6.315906,-0.80658 9.489166,-0.66444 2.51671,-0.0294 5.03341,-0.0582 7.55016,-0.0659 2.03715,0.0444 4.0816,0.0466 6.10462,0.55022 1.87847,0.61272 3.70129,1.62244 5.556,2.43329 2.21524,1.1727 4.40313,2.53169 6.55191,4.067036 1.7929,1.25695 3.54257,2.81527 5.43574,3.50909 0,0 -10.01496,12.86905 -10.01496,12.86905 z"
         id="path3765"
         style="fill:#333333;stroke:#000000;stroke-width:1.10879421;stroke-opacity:0" />
      <path
         inkscape:connector-curvature="0"
         d="m 100.42741,104.65098 c -0.536346,-3.08999 -0.982846,-6.202756 -1.263256,-9.407626 -0.19967,-2.96411 -0.94287,-5.61622 -1.40895,-8.44059 -0.61704,-2.77513 -0.88764,-5.715543 -1.23979,-8.622042 -0.46349,-3.026562 -0.70606,-6.128602 -0.84397,-9.25592 -0.12042,-3.133173 -0.16349,-6.255572 0.0814,-9.367793 0.29902,-2.817447 1.0141,-5.411948 1.8329,-7.829087 0,0 11.101236,-9.041755 11.101236,-9.041755 l 0,0 c -0.7595,2.292531 -1.58007,4.497612 -2.06767,7.067975 -0.29615,2.959444 -0.34071,5.888391 -0.20674,8.897648 0.1025,3.014807 0.2868,6.019916 0.74909,8.930181 0.40027,2.842733 0.55859,5.805308 1.23891,8.506341 0.44324,2.945786 1.19901,5.70194 1.4377,8.756212 0.23001,3.12533 0.57844,6.23038 1.35405,9.0711 0,0 -10.76492,10.735356 -10.76492,10.735356 z"
         id="path3775"
         style="fill:#333333;stroke:#000000;stroke-width:1.10879421;stroke-opacity:0" />
      <path
         inkscape:connector-curvature="0"
         d="m 79.778774,105.61441 c -0.80593,-3.66619 -1.69387,-7.214846 -2.304173,-11.022476 -0.737499,-3.6475 -1.118861,-7.46184 -1.571623,-11.24782 -0.404768,-3.166798 -0.633386,-6.435333 -0.558601,-9.691669 0.156369,-3.06194 0.293407,-6.124261 0.366015,-9.197399 0.04209,-2.041892 0.05191,-4.085323 0.06081,-6.128432 0,0 10.785472,-10.252034 10.785472,-10.252034 l 0,0 c -0.005,2.064771 -0.0106,4.129762 -0.0429,6.193852 -0.0563,3.092426 -0.15463,6.181176 -0.35101,9.255034 -0.15456,3.064314 0.009,6.128198 0.36831,9.127243 0.47689,3.743097 0.68537,7.612402 1.4547,11.223735 0.55668,3.69908 1.42196,7.08131 2.41827,10.43555 0,0 -10.62522,11.304416 -10.62522,11.304416 z"
         id="path3781"
         style="fill:#333333;stroke:#000000;stroke-width:1.11611998;stroke-opacity:0" />
    </g>
    <g
       transform="matrix(-0.84946056,0,0,0.83788881,287.25553,-47.71754)"
       id="g3788">
      <path
         style="fill:#333333;stroke:#000000;stroke-width:1.10879421;stroke-opacity:0"
         id="path3790"
         d="m 125.15156,116.91067 c -1.80781,-1.25121 -3.55837,-2.79963 -5.37449,-4.01604 -2.11501,-1.54045 -4.28903,-2.8767 -6.49945,-3.87602 -1.84815,-0.76329 -3.65338,-1.72251 -5.53882,-2.15728 -1.97996,-0.33504 -3.97111,-0.34588 -5.95782,-0.35144 -2.482266,-0.0294 -4.964566,-0.0322 -7.446886,-0.0512 -3.13758,-0.28732 -6.24738,0.24239 -9.36848,0.72815 -2.71453,0.38081 -5.38157,1.43484 -8.084929,2.01367 -1.877588,0.38982 -3.767006,0.39222 -5.65337,0.40073 -2.116191,0.12016 -4.19064,0.0135 -6.228845,-1.10453 -2.086837,-1.63992 -3.865132,-4.36624 -5.627747,-6.95246 -1.751676,-2.412526 -3.374984,-4.949586 -4.747448,-8.096276 -1.18199,-2.99266 -1.802365,-6.54708 -2.275533,-10.10397 -0.209912,-3.299123 -0.670453,-6.488168 -1.074797,-9.71246 -0.470658,-3.110753 -0.820781,-6.195528 -0.739264,-9.431377 0.151735,-2.119701 0.509425,-4.161016 0.784988,-6.232276 0,0 10.897113,-9.67305 10.897113,-9.67305 l 0,0 c -0.233968,2.001612 -0.516289,3.976372 -0.859747,5.924728 -0.178526,3.064667 0.07076,5.939327 0.574546,8.888605 0.313427,3.237201 0.954247,6.369294 1.031502,9.698032 0.378787,3.264729 0.950942,6.472535 2.012715,9.217688 1.315496,2.97734 2.861907,5.4477 4.523464,7.76221 1.673053,2.37669 3.386029,4.91056 5.425256,6.09733 1.997222,0.76512 4.015206,0.77158 6.049006,0.6356 1.85106,-0.0548 3.70427,-0.16371 5.54506,-0.55132 2.65396,-0.58501 5.28984,-1.47046 7.96134,-1.75547 3.15955,-0.49784 6.315906,-0.80658 9.489166,-0.66444 2.51671,-0.0294 5.03341,-0.0582 7.55016,-0.0659 2.03715,0.0444 4.0816,0.0466 6.10462,0.55022 1.87847,0.61272 3.70129,1.62244 5.556,2.43329 2.21524,1.1727 4.40313,2.53169 6.55191,4.067036 1.7929,1.25695 3.54257,2.81527 5.43574,3.50909 0,0 -10.01496,12.86905 -10.01496,12.86905 z"
         inkscape:connector-curvature="0" />
      <path
         style="fill:#333333;stroke:#000000;stroke-width:1.10879421;stroke-opacity:0"
         id="path3792"
         d="m 100.42741,104.65098 c -0.536346,-3.08999 -0.982846,-6.202756 -1.263256,-9.407626 -0.19967,-2.96411 -0.94287,-5.61622 -1.40895,-8.44059 -0.61704,-2.77513 -0.88764,-5.715543 -1.23979,-8.622042 -0.46349,-3.026562 -0.70606,-6.128602 -0.84397,-9.25592 -0.12042,-3.133173 -0.16349,-6.255572 0.0814,-9.367793 0.29902,-2.817447 1.0141,-5.411948 1.8329,-7.829087 0,0 11.101236,-9.041755 11.101236,-9.041755 l 0,0 c -0.7595,2.292531 -1.58007,4.497612 -2.06767,7.067975 -0.29615,2.959444 -0.34071,5.888391 -0.20674,8.897648 0.1025,3.014807 0.2868,6.019916 0.74909,8.930181 0.40027,2.842733 0.55859,5.805308 1.23891,8.506341 0.44324,2.945786 1.19901,5.70194 1.4377,8.756212 0.23001,3.12533 0.57844,6.23038 1.35405,9.0711 0,0 -10.76492,10.735356 -10.76492,10.735356 z"
         inkscape:connector-curvature="0" />
      <path
         style="fill:#333333;stroke:#000000;stroke-width:1.11611998;stroke-opacity:0"
         id="path3794"
         d="m 79.778774,105.61441 c -0.80593,-3.66619 -1.69387,-7.214846 -2.304173,-11.022476 -0.737499,-3.6475 -1.118861,-7.46184 -1.571623,-11.24782 -0.404768,-3.166798 -0.633386,-6.435333 -0.558601,-9.691669 0.156369,-3.06194 0.293407,-6.124261 0.366015,-9.197399 0.04209,-2.041892 0.05191,-4.085323 0.06081,-6.128432 0,0 10.785472,-10.252034 10.785472,-10.252034 l 0,0 c -0.005,2.064771 -0.0106,4.129762 -0.0429,6.193852 -0.0563,3.092426 -0.15463,6.181176 -0.35101,9.255034 -0.15456,3.064314 0.009,6.128198 0.36831,9.127243 0.47689,3.743097 0.68537,7.612402 1.4547,11.223735 0.55668,3.69908 1.42196,7.08131 2.41827,10.43555 0,0 -10.62522,11.304416 -10.62522,11.304416 z"
         inkscape:connector-curvature="0" />
    </g>
    <path
       sodipodi:type="arc"
       style="fill:#333333;stroke:#000000;stroke-opacity:0"
       id="path3796"
       sodipodi:cx="136.37059"
       sodipodi:cy="93.222343"
       sodipodi:rx="4.0406103"
       sodipodi:ry="5.5558391"
       d="m 140.4112,93.222343 a 4.0406103,5.5558391 0 1 1 -8.08122,0 4.0406103,5.5558391 0 1 1 8.08122,0 z"
       transform="translate(5.0507627,-32.072344)" />
    <path
       sodipodi:type="arc"
       style="fill:#333333;stroke:#000000;stroke-opacity:0"
       id="path3796-1"
       sodipodi:cx="136.37059"
       sodipodi:cy="93.222343"
       sodipodi:rx="4.0406103"
       sodipodi:ry="5.5558391"
       d="m 140.4112,93.222343 a 4.0406103,5.5558391 0 1 1 -8.08122,0 4.0406103,5.5558391 0 1 1 8.08122,0 z"
       transform="translate(32.324885,-32.072344)" />
  </g>
</svg>
